<svg width="501" height="501" viewBox="0 0 501 501" fill="none" xmlns="http://www.w3.org/2000/svg">
<path d="M125.43 0.0599976V335.47C114.242 331.869 102.553 330.067 90.8 330.13C40.93 330.13 0.429993 365.42 0.429993 415.29C0.429993 465.16 40.93 500.06 90.8 500.06C140.67 500.06 181.42 463.34 181.42 410.06V177.14H444.42V335.47C433.232 331.869 421.543 330.066 409.79 330.13C359.92 330.13 319.42 365.42 319.42 415.29C319.42 465.16 359.92 500.06 409.79 500.06C459.66 500.06 500.41 463.34 500.41 410.06V0.0599976H125.43ZM444.43 125.06H181.43V56.06H444.43V125.06Z" fill="#6C63FF"/>
</svg>
